<svg xmlns="http://www.w3.org/2000/svg" viewBox="0 0 240 60"><path fill="#ffffff" d="M27 0L0 60h9.5l4.4-11.2h26.2L44.5 60H54L27 0zm0 15.8l10.4 26.6H16.6L27 15.8zM66 60V0h19.2c18 0 27.4 9.8 27.4 29.8S103.4 60 85 60H66zm9.6-8.4H84c12.4 0 18.6-7.4 18.6-21.8C102.6 16 96.4 8.4 84 8.4H75.6V51.6zm60.6 8.4V0h37.2v8.4H146v16.2h25.2v8.2H146V51.6h27.2V60H136.2zm63.6 0V0h19.4c12.6 0 20 5.6 20 16 0 7-3.4 12-9.8 14.8 7.6 2.4 11.6 8 11.6 16 0 10.8-7.8 17.2-21.6 17.2H199.8zm9.6-34.8H219c7.4 0 11-3 11-9.2s-3.6-8.8-11-8.8h-9.6V25.2zm0 26.4H220c8.2 0 12.4-3.4 12.4-10.4s-4.2-9.8-12.4-9.8h-10.6V51.6z"/></svg>